<svg xmlns="http://www.w3.org/2000/svg" viewBox="0 0 40 40"><path d="M20.69 8h4a4.94 4.94 0 0 1 .1.53 5.61 5.61 0 0 0 5.55 5.12v3.77a1.66 1.66 0 0 1-.58.08A20.28 20.28 0 0 1 27 17a18.55 18.55 0 0 1-2.28-1.06v6.59a16.13 16.13 0 0 1-.16 2.47 8.06 8.06 0 0 1-4.68 6.32 17.26 17.26 0 0 1-2.26.66h-1.39a1.34 1.34 0 0 0-.18-.07 7.14 7.14 0 0 1-6-5.25 13.66 13.66 0 0 1-.38-1.82v-1.17c.11-.55.19-1.1.35-1.64a7.59 7.59 0 0 1 6.62-5.3c.45-.07.9-.09 1.38-.13v3.71c0 .29-.15.33-.39.4a15.46 15.46 0 0 0-2.25.7 2.92 2.92 0 0 0-1.89 2.78 3.48 3.48 0 0 0 1.92 3.33 3.31 3.31 0 0 0 3.69-.14 3.5 3.5 0 0 0 1.44-2.45 21.6 21.6 0 0 0 .15-3V8.6c.03-.21.01-.4 0-.6Z"/></svg>