<svg xmlns="http://www.w3.org/2000/svg" width="100" height="100"><path d="M95 49.247c0 24.213-19.779 43.841-44.182 43.841a44.256 44.256 0 0 1-21.357-5.455L5 95.406l7.975-23.522a43.38 43.38 0 0 1-6.34-22.637c0-24.213 19.781-43.841 44.184-43.841C75.223 5.406 95 25.034 95 49.247M50.818 12.388c-20.484 0-37.146 16.535-37.146 36.859 0 8.066 2.629 15.535 7.076 21.611l-4.641 13.688 14.275-4.537a37.122 37.122 0 0 0 20.437 6.097c20.481 0 37.146-16.533 37.146-36.858-.001-20.324-16.664-36.86-37.147-36.86m22.311 46.956c-.273-.447-.994-.717-2.076-1.254-1.084-.537-6.41-3.138-7.4-3.494-.993-.359-1.717-.539-2.438.536-.721 1.076-2.797 3.495-3.43 4.212-.632.719-1.263.809-2.347.271-1.082-.537-4.571-1.673-8.708-5.334-3.219-2.847-5.393-6.364-6.025-7.44-.631-1.075-.066-1.656.475-2.191.488-.482 1.084-1.255 1.625-1.882.543-.628.723-1.075 1.082-1.793.363-.717.182-1.344-.09-1.883-.27-.537-2.438-5.825-3.34-7.976-.902-2.151-1.803-1.793-2.436-1.793-.631 0-1.354-.09-2.076-.09s-1.896.269-2.889 1.344c-.992 1.076-3.789 3.676-3.789 8.963 0 5.288 3.879 10.397 4.422 11.114.541.716 7.49 11.92 18.5 16.223 11.011 4.3 11.011 2.865 12.997 2.685 1.984-.179 6.406-2.599 7.312-5.107.9-2.512.9-4.663.631-5.111"/></svg>